# xmcd CD database file
#
# Track frame offsets:
#	150
#	4805
#	24102
#	43145
#	71062
#	94237
#	99147
#	125342
#
# Disc length: 1993 seconds
#
# Revision: 2
# Processed by: cddbd v1.5.1PL0 Copyright (c) Steve Scherf et al.
# Submitted via: CDex 1.51
#
DISCID=5b07c708
DTITLE=くるり - ファンデリア
DYEAR=2000
DGENRE=Rock
TTITLE0=Interlude
TTITLE1=モノノケ姫
TTITLE2=Old-fashioned
TTITLE3=続きのない夢の中
TTITLE4=雨
TTITLE5=Supper
TTITLE6=坂道
TTITLE7=Yes mom I'm so lonely
EXTD=YEAR: 2000
EXTT0=
EXTT1=
EXTT2=
EXTT3=
EXTT4=
EXTT5=
EXTT6=
EXTT7=
PLAYORDER=
